<svg width="21" height="21" viewBox="0 0 21 21" fill="none" xmlns="http://www.w3.org/2000/svg">
<path fill-rule="evenodd" clip-rule="evenodd" d="M9.66083 0.341584C9.87961 0.122868 10.1763 0 10.4857 0C10.795 0 11.0917 0.122868 11.3105 0.341584L18.3105 7.34158L20.6438 9.67492C20.8563 9.89495 20.9739 10.1897 20.9713 10.4956C20.9686 10.8014 20.8459 11.0941 20.6296 11.3104C20.4133 11.5267 20.1207 11.6494 19.8148 11.652C19.5089 11.6547 19.2142 11.5371 18.9942 11.3246L18.6523 10.9827V18.6664C18.6523 19.2853 18.4065 19.8787 17.9689 20.3163C17.5313 20.7539 16.9378 20.9998 16.319 20.9998H12.819C12.5096 20.9998 12.2128 20.8768 11.994 20.658C11.7752 20.4392 11.6523 20.1425 11.6523 19.8331V16.3331H9.319V19.8331C9.319 20.1425 9.19608 20.4392 8.97729 20.658C8.7585 20.8768 8.46175 20.9998 8.15233 20.9998H4.65233C4.03349 20.9998 3.44 20.7539 3.00241 20.3163C2.56483 19.8787 2.319 19.2853 2.319 18.6664V10.9827L1.97716 11.3246C1.75713 11.5371 1.46243 11.6547 1.15653 11.652C0.850633 11.6494 0.558018 11.5267 0.341709 11.3104C0.125399 11.0941 0.00270226 10.8014 4.41031e-05 10.4956C-0.00261405 10.1897 0.114979 9.89495 0.327497 9.67492L2.66083 7.34158L9.66083 0.341584Z" fill="#7C7379"/>
</svg>
