<svg width="20" height="20" viewBox="0 0 20 20" fill="none" xmlns="http://www.w3.org/2000/svg">
<path d="M14.7137 13.8801L11.1782 17.4158C11.0236 17.5705 10.84 17.6933 10.6379 17.7771C10.4358 17.8609 10.2192 17.904 10.0004 17.904C9.78163 17.904 9.56501 17.8609 9.36292 17.7771C9.16082 17.6933 8.97722 17.5705 8.8226 17.4158L5.28629 13.8801C4.35407 12.9478 3.71923 11.7599 3.46205 10.4668C3.20487 9.17365 3.3369 7.83329 3.84144 6.61518C4.34598 5.39708 5.20038 4.35596 6.29659 3.62346C7.3928 2.89097 8.68159 2.5 9.99998 2.5C11.3184 2.5 12.6072 2.89097 13.7034 3.62346C14.7996 4.35596 15.654 5.39708 16.1585 6.61518C16.6631 7.83329 16.7951 9.17365 16.5379 10.4668C16.2807 11.7599 15.6459 12.9478 14.7137 13.8801Z" stroke="#A29DA0" stroke-width="2" stroke-linecap="round"/>
<path d="M12.5 9.16602C12.5 9.82906 12.2366 10.4649 11.7678 10.9338C11.2989 11.4026 10.663 11.666 10 11.666C9.33696 11.666 8.70107 11.4026 8.23223 10.9338C7.76339 10.4649 7.5 9.82906 7.5 9.16602C7.5 8.50297 7.76339 7.86709 8.23223 7.39825C8.70107 6.92941 9.33696 6.66602 10 6.66602C10.663 6.66602 11.2989 6.92941 11.7678 7.39825C12.2366 7.86709 12.5 8.50297 12.5 9.16602Z" stroke="#A29DA0" stroke-width="2" stroke-linecap="round"/>
</svg>
